<svg width="24" height="24" viewBox="0 0 24 24" fill="none" xmlns="http://www.w3.org/2000/svg">
<path d="M3.26475 9.37643C2.60483 8.02705 3.40368 6.50468 3.54261 6.22789L3.57734 6.19329C3.82047 5.7435 3.64681 5.18991 3.19528 4.98231C2.74376 4.77472 2.18804 4.91311 1.97965 5.36291C1.66706 5.98569 1.59759 6.67768 1.77126 7.33507C2.04912 8.13085 2.5701 8.85744 3.26475 9.37643Z" fill="white" fill-opacity="0.9"/>
<path d="M0 11.9365C0 14.0471 0.451521 18.9256 4.58468 18.9256C6.77282 18.9256 8.5789 17.161 8.5789 14.9467C8.5789 13.9087 8.16212 12.8707 7.398 12.1441C7.05068 11.7635 6.59916 11.4867 6.14764 11.2791C5.52245 11.0369 4.89727 10.7601 4.30682 10.4488C2.53547 9.47997 1.56296 8.3036 1.35456 6.98882C1.31983 6.78123 1.31983 6.60823 1.31983 6.40063C0.486254 8.1306 0 10.0336 0 11.9365Z" fill="white" fill-opacity="0.9"/>
<path d="M18.6166 1.97239C18.0262 1.661 17.2968 1.5918 16.6716 1.7648C15.838 2.00699 15.1086 2.52598 14.5876 3.25257C15.9422 2.59518 17.4704 3.39096 17.7483 3.52936H17.783C18.1998 3.80616 18.7555 3.66776 19.0334 3.21797C19.3113 2.80278 19.1723 2.24919 18.7208 1.97239C18.6513 2.00699 18.6513 1.97239 18.6166 1.97239Z" fill="white" fill-opacity="0.9"/>
<path d="M12.6427 6.12408C12.8858 5.50129 13.1636 4.87851 13.4762 4.29032C14.3445 2.73335 15.3865 1.76457 16.5674 1.45317C16.88 1.38397 17.2273 1.34937 17.5399 1.34937C15.8033 0.484391 13.9278 0 11.9827 0C9.86407 0 4.9668 0.449791 4.9668 4.56711C4.9668 6.15868 5.9393 7.61185 7.39807 8.23464C8.4053 8.64983 9.51674 8.64983 10.4892 8.23464C10.9755 8.02704 11.3923 7.75025 11.7396 7.36966C12.1564 7.02366 12.4343 6.57387 12.6427 6.12408Z" fill="white" fill-opacity="0.9"/>
<path d="M20.7007 14.4971C21.3606 15.8464 20.5618 17.3688 20.4228 17.6456V17.6802C20.1797 18.13 20.3186 18.649 20.7701 18.8912C21.2217 19.1334 21.7427 18.9604 21.9858 18.5452C22.2984 17.957 22.3678 17.2304 22.1942 16.6076C21.951 15.7426 21.4301 15.0161 20.7007 14.4971Z" fill="white" fill-opacity="0.9"/>
<path d="M24 11.9371C24 9.8265 23.5485 4.948 19.4154 4.948C17.2272 4.948 15.4211 6.71256 15.4211 8.92692C15.4211 9.9649 15.8379 11.0029 16.602 11.7295C16.9494 12.1101 17.4009 12.3869 17.8524 12.5944C18.4776 12.8366 19.1028 13.1134 19.6932 13.4248C22.2287 14.8434 22.7149 16.4004 22.6455 17.473C23.5485 15.743 24 13.8746 24 11.9371Z" fill="white" fill-opacity="0.9"/>
<path d="M9.41267 20.6211C8.05811 21.2785 6.52988 20.4827 6.25202 20.3443C6.1131 20.2751 5.97417 20.2405 5.8005 20.2405C5.31425 20.2405 4.89746 20.6557 4.89746 21.1401C4.89746 21.4861 5.07112 21.7974 5.38371 21.9358C5.97417 22.2472 6.70355 22.3164 7.36346 22.1434C8.19704 21.8666 8.92642 21.3477 9.41267 20.6211Z" fill="white" fill-opacity="0.9"/>
<path d="M17.8525 16.5387C17.5052 16.1927 17.0537 15.8813 16.6022 15.6737C15.5949 15.2585 14.4835 15.2585 13.511 15.6737C13.0247 15.8813 12.608 16.1581 12.2606 16.5387C11.8786 16.8847 11.6007 17.2999 11.4271 17.7843C11.1839 18.407 10.9061 19.0298 10.5935 19.618C9.72517 21.175 8.68319 22.1438 7.50229 22.4552C7.1897 22.5244 6.84238 22.5936 6.52979 22.559C8.16221 23.4239 10.0725 23.8737 11.9828 23.8737C14.1014 23.8737 18.9987 23.4239 18.9987 19.3066C19.0335 18.2686 18.6167 17.2653 17.8525 16.5387Z" fill="white" fill-opacity="0.9"/>
</svg>
