<?xml version="1.0" standalone="no"?>
<!DOCTYPE svg PUBLIC "-//W3C//DTD SVG 20010904//EN"
 "http://www.w3.org/TR/2001/REC-SVG-20010904/DTD/svg10.dtd">
<svg version="1.0" xmlns="http://www.w3.org/2000/svg"
 width="276.000000pt" height="87.000000pt" viewBox="0 0 276.000000 87.000000"
 preserveAspectRatio="xMidYMid meet">

<g transform="translate(0.000000,87.000000) scale(0.100000,-0.100000)"
fill="#000000" stroke="none">
<path d="M0 435 l0 -435 1380 0 1380 0 0 435 0 435 -1380 0 -1380 0 0 -435z
m772 251 l16 -44 -33 -18 -33 -17 52 -26 c61 -30 155 -121 185 -179 11 -22 21
-45 21 -49 0 -5 -20 -16 -45 -25 -40 -15 -45 -15 -53 -1 -7 12 -13 8 -32 -23
-13 -22 -39 -56 -59 -78 -35 -38 -145 -116 -163 -116 -10 0 -38 62 -38 84 0 8
9 18 20 21 31 10 24 18 -35 44 -71 30 -139 90 -187 165 -21 32 -38 62 -38 66
0 7 77 40 93 40 3 0 15 -16 25 -36 l19 -37 16 39 c25 62 80 132 138 176 94 70
109 72 131 14z m593 -176 c34 -13 23 -31 -15 -23 -43 8 -39 -19 6 -40 27 -13
35 -22 32 -39 -4 -27 -51 -47 -75 -32 -18 11 -17 31 1 25 50 -16 58 10 11 37
-40 25 -44 44 -13 66 27 19 21 18 53 6z m-207 -45 c15 -24 29 -45 32 -45 3 0
16 20 30 45 23 43 44 57 52 35 6 -19 -4 -130 -12 -130 -5 0 -10 19 -12 43 l-3
42 -23 -37 c-13 -21 -27 -38 -32 -38 -5 0 -19 17 -32 38 l-23 37 -3 -43 c-5
-69 -27 -46 -30 31 -4 83 15 90 56 22z m322 -26 c0 -52 -3 -70 -12 -67 -8 3
-14 29 -16 71 -2 55 0 67 13 67 12 0 15 -14 15 -71z m172 3 c-14 -4 -16 -52
-2 -52 6 0 10 -5 10 -11 0 -6 -10 -9 -22 -7 -18 2 -24 12 -29 43 -4 23 -2 47
4 57 11 16 13 16 31 -4 14 -15 16 -23 8 -26z m-74 6 c16 -16 16 -81 0 -76 -7
3 -14 19 -16 36 -2 19 -9 32 -17 32 -8 0 -15 -13 -17 -32 -5 -52 -28 -47 -28
6 0 45 0 46 33 46 18 0 38 -5 45 -12z m162 3 c0 -5 -9 -11 -20 -14 -15 -4 -20
-14 -20 -36 0 -21 -5 -31 -15 -31 -11 0 -15 12 -15 45 0 45 0 45 35 45 19 0
35 -4 35 -9z m88 -3 c21 -21 14 -57 -14 -70 -31 -14 -57 -1 -62 31 -7 42 46
69 76 39z m113 -9 l11 -21 14 21 c27 38 84 22 84 -24 0 -45 -59 -63 -82 -25
-7 11 -16 20 -19 20 -4 0 -9 -9 -12 -20 -3 -14 -14 -20 -31 -20 -21 0 -26 -5
-26 -26 0 -16 -5 -24 -12 -22 -9 3 -13 28 -14 71 l-1 67 38 0 c29 0 41 -5 50
-21z m146 0 l6 -22 17 23 18 23 12 -23 13 -24 8 22 c8 21 29 31 29 13 0 -5 -7
-26 -16 -47 l-16 -39 -16 23 -16 24 -17 -24 -18 -23 -15 37 c-9 21 -16 42 -16
48 0 19 22 10 27 -11z m191 9 c22 -22 13 -38 -19 -38 -18 0 -28 -4 -24 -10 4
-6 16 -8 27 -4 15 4 19 2 16 -7 -7 -22 -59 -17 -74 6 -27 41 39 88 74 53z m92
2 c0 -5 -9 -10 -19 -10 -15 0 -21 -8 -23 -32 -5 -52 -28 -47 -28 6 0 46 0 46
35 46 19 0 35 -4 35 -10z"/>
<path d="M619 533 c-22 -20 -54 -56 -70 -80 l-30 -43 22 -31 c23 -32 133 -119
151 -119 6 0 42 32 80 70 47 48 66 75 61 84 -25 42 -146 156 -166 156 -4 0
-25 -17 -48 -37z m107 -88 c10 -16 14 -34 10 -50 -16 -62 -115 -46 -116 19 0
54 76 76 106 31z"/>
<path d="M1777 426 c-8 -21 16 -39 31 -24 8 8 9 15 1 25 -15 17 -25 17 -32 -1z"/>
<path d="M1883 424 c-8 -21 13 -42 28 -27 13 13 5 43 -11 43 -6 0 -13 -7 -17
-16z"/>
<path d="M1987 427 c-3 -8 -1 -20 3 -27 7 -11 11 -11 24 -1 12 11 14 17 5 27
-14 18 -25 18 -32 1z"/>
</g>
</svg>
