<svg width="32" height="32" viewBox="0 0 32 32" fill="none" xmlns="http://www.w3.org/2000/svg">
<path fill-rule="evenodd" clip-rule="evenodd" d="M13.5965 9.95182C14.4253 9.55543 15.5117 9.33329 16.6666 9.33329C17.8215 9.33329 18.9079 9.55543 19.7367 9.95182C20.5045 10.319 21.3333 10.9885 21.3333 12C21.3333 13.0115 20.5045 13.6809 19.7367 14.0481C18.9079 14.4445 17.8215 14.6666 16.6666 14.6666C15.5117 14.6666 14.4253 14.4445 13.5965 14.0481C12.8286 13.6809 11.9999 13.0115 11.9999 12C11.9999 10.9885 12.8286 10.319 13.5965 9.95182ZM14.3156 11.4554C13.696 11.7517 13.6666 12 13.6666 12C13.6666 12 13.696 12.2482 14.3156 12.5445C14.8741 12.8117 15.7044 13 16.6666 13C17.6288 13 18.459 12.8117 19.0176 12.5445C19.6372 12.2482 19.6666 12 19.6666 12C19.6666 12 19.6372 11.7517 19.0176 11.4554C18.459 11.1882 17.6288 11 16.6666 11C15.7044 11 14.8741 11.1882 14.3156 11.4554Z" fill="white"/>
<path d="M16.6666 16.0001C18.5475 16.0001 20.2262 15.4231 21.3263 14.5201C21.3309 14.5687 21.3333 14.6177 21.3333 14.667C21.3333 16.1397 19.2439 17.3336 16.6666 17.3336C14.0893 17.3336 11.9999 16.1397 11.9999 14.667C11.9999 14.6177 12.0023 14.5687 12.0069 14.5201C13.107 15.4231 14.7857 16.0001 16.6666 16.0001Z" fill="white"/>
<path d="M16.6666 18.6667C18.5475 18.6667 20.2262 18.0898 21.3263 17.1868C21.3309 17.2353 21.3333 17.2842 21.3333 17.3334C21.3333 18.8062 19.2439 20.0001 16.6666 20.0001C14.0893 20.0001 11.9999 18.8062 11.9999 17.3334C11.9999 17.2842 12.0022 17.2353 12.0069 17.1868C13.1069 18.0898 14.7857 18.6667 16.6666 18.6667Z" fill="white"/>
<path fill-rule="evenodd" clip-rule="evenodd" d="M8.66659 2.66663C6.82564 2.66663 5.33325 4.15901 5.33325 5.99996V26C5.33325 27.8409 6.82564 29.3333 8.66659 29.3333H26.3333C26.8855 29.3333 27.3333 28.8856 27.3333 28.3333C27.3333 27.781 26.8855 27.3333 26.3333 27.3333H8.66659C7.93021 27.3333 7.33325 26.7363 7.33325 26H26.3333C26.8855 26 27.3333 25.5522 27.3333 25V5.99996C27.3333 4.15901 25.8409 2.66663 23.9999 2.66663H8.66659ZM25.3333 24H7.33325V5.99996C7.33325 5.26358 7.93021 4.66663 8.66659 4.66663H23.9999C24.7363 4.66663 25.3333 5.26358 25.3333 5.99996V24Z" fill="white"/>
</svg>
