<?xml version="1.0" encoding="utf-8"?>
<svg width="246" height="23" viewBox="0 0 246 23" fill="none" xmlns="http://www.w3.org/2000/svg">
<g clip-path="url(#clip0)">
<path d="M10.1908 18.9841C12.5607 18.9841 14.3382 17.4021 14.9306 14.9683L19.078 16.4286C17.7746 20.4444 14.6936 23 10.1908 23C4.2659 23 0 18.254 0 11.5608C0 4.86772 4.2659 0 10.1908 0C14.6936 0 17.7746 2.55556 19.078 6.57143L14.9306 8.03175C14.3382 5.59788 12.5607 4.01587 10.1908 4.01587C6.87283 4.01587 4.50289 6.93651 4.50289 11.5608C4.50289 16.1852 6.87283 18.9841 10.1908 18.9841Z" fill="#006BC9"/>
<path d="M21.3296 0.36499H25.5955V8.03166C26.425 6.93642 27.9654 6.08457 29.9799 6.08457C33.2978 6.08457 35.3122 8.39674 35.3122 11.9258V22.7565H31.0464V13.1428C31.0464 11.3174 30.3354 9.97875 28.5579 9.97875C27.0175 9.97875 25.5955 11.074 25.5955 13.2645V22.7565H21.3296V0.36499Z" fill="#006BC9"/>
<path d="M37.8008 18.1323C37.8008 14.8466 40.4077 13.508 43.6071 12.8995L47.636 12.1694V11.926C47.636 10.4657 46.9251 9.61382 45.1476 9.61382C43.6071 9.61382 42.7777 10.344 42.4222 11.8043L38.3933 11.0741C39.1043 8.27519 41.5927 6.08472 45.3846 6.08472C49.4135 6.08472 51.9019 8.03181 51.9019 11.8043V18.4974C51.9019 19.3493 52.2574 19.5927 53.2054 19.471V22.7567C50.48 23.1218 48.821 22.635 48.2285 21.1747C47.1621 22.2699 45.6216 23.0001 43.4886 23.0001C40.0522 23.0001 37.8008 21.053 37.8008 18.1323ZM47.5175 15.2117L44.4366 15.8202C43.0147 16.0636 42.0667 16.5503 42.0667 17.8889C42.0667 18.9842 42.8962 19.7143 44.1996 19.7143C45.9771 19.7143 47.636 18.7408 47.636 16.9154V15.2117H47.5175Z" fill="#006BC9"/>
<path d="M65.0548 10.5873C64.5808 10.4656 64.2253 10.4656 63.6328 10.4656C61.3814 10.4656 59.7224 11.9259 59.7224 14.3597V22.6349H55.4565V6.32799H59.7224V8.64016C60.4334 7.17984 61.9739 6.2063 63.9883 6.2063C64.4623 6.2063 64.6993 6.2063 65.0548 6.32799V10.5873Z" fill="#006BC9"/>
<path d="M68.4913 9.97875H66.3584V6.32795H68.4913V1.70361H72.6387V6.32795H75.8382V9.97875H72.6387V17.5237C72.6387 18.984 73.3497 19.1057 74.6532 19.1057C75.2457 19.1057 75.6012 19.1057 76.0752 18.984V22.6348C75.3642 22.7565 74.4162 22.8782 73.3497 22.8782C70.1503 22.8782 68.4913 21.783 68.4913 18.3756V9.97875Z" fill="#006BC9"/>
<path d="M90.4133 6.32812L93.0202 16.5503L95.7456 6.32812H99.893L95.0346 22.7567H91.3612L88.6358 12.8996L85.9104 22.7567H82.237L77.4971 6.32812H81.763L84.4884 16.5503L87.0953 6.32812H90.4133Z" fill="#006BC9"/>
<path d="M100.485 14.4817C100.485 9.61393 103.685 5.96313 108.306 5.96313C113.046 5.96313 115.534 9.61393 115.534 14.1166V15.3335H104.514C104.87 17.7674 106.292 19.3494 108.425 19.3494C110.084 19.3494 111.387 18.4975 111.861 16.9155L115.416 18.2541C114.231 21.2965 111.624 22.8785 108.425 22.8785C103.685 23.0002 100.485 19.5928 100.485 14.4817ZM104.633 12.5346H111.269C111.269 10.9526 110.202 9.49224 108.188 9.49224C106.41 9.49224 105.107 10.4658 104.633 12.5346Z" fill="#006BC9"/>
<path d="M122.526 22.7565H118.26V0.36499H122.526V22.7565Z" fill="#006BC9"/>
<path d="M130.228 22.7565H125.962V0.36499H130.228V22.7565Z" fill="#006BC9"/>
<path d="M136.864 0.36499H132.48V4.25917H136.627C139.234 4.25917 140.538 5.35441 140.538 7.42319C140.538 9.37028 139.234 10.5872 136.627 10.5872H132.48V14.4814H136.864C141.841 14.4814 145.041 12.0475 145.041 7.42319C145.041 2.79885 141.841 0.36499 136.864 0.36499Z" fill="#103060"/>
<path d="M146.107 18.1323C146.107 14.8466 148.714 13.508 151.913 12.8995L155.942 12.1694V11.926C155.942 10.4657 155.231 9.61382 153.454 9.61382C151.913 9.61382 151.084 10.344 150.728 11.8043L146.699 11.0741C147.41 8.27519 149.899 6.08472 153.691 6.08472C157.72 6.08472 160.208 8.03181 160.208 11.8043V18.4974C160.208 19.3493 160.564 19.5927 161.512 19.471V22.7567C158.786 23.1218 157.127 22.635 156.535 21.1747C155.468 22.2699 153.928 23.0001 151.795 23.0001C148.358 23.0001 146.107 21.053 146.107 18.1323ZM155.824 15.2117L152.743 15.8202C151.321 16.0636 150.373 16.5503 150.373 17.8889C150.373 18.9842 151.202 19.7143 152.506 19.7143C154.283 19.7143 155.942 18.7408 155.942 16.9154V15.2117H155.824Z" fill="#103060"/>
<path d="M173.361 10.5873C172.887 10.4656 172.532 10.4656 171.939 10.4656C169.688 10.4656 168.029 11.9259 168.029 14.3597V22.6349H163.763V6.32799H168.029V8.64016C168.74 7.17984 170.28 6.2063 172.295 6.2063C172.769 6.2063 173.006 6.2063 173.361 6.32799V10.5873Z" fill="#103060"/>
<path d="M176.798 9.97875H174.665V6.32795H176.798V1.70361H180.945V6.32795H184.145V9.97875H180.945V17.5237C180.945 18.984 181.656 19.1057 182.96 19.1057C183.552 19.1057 183.908 19.1057 184.382 18.984V22.6348C183.671 22.7565 182.723 22.8782 181.656 22.8782C178.457 22.8782 176.798 21.783 176.798 18.3756V9.97875Z" fill="#103060"/>
<path d="M187.107 6.3281H191.373V8.03181C192.202 6.93657 193.743 6.08472 195.757 6.08472C199.075 6.08472 201.09 8.39689 201.09 11.926V22.7567H196.824V13.1429C196.824 11.3175 196.113 9.9789 194.335 9.9789C192.795 9.9789 191.373 11.0741 191.373 13.2646V22.7567H187.107V6.3281Z" fill="#103060"/>
<path d="M203.578 14.4817C203.578 9.61393 206.778 5.96313 211.399 5.96313C216.139 5.96313 218.627 9.61393 218.627 14.1166V15.3335H207.607C207.963 17.7674 209.384 19.3494 211.517 19.3494C213.176 19.3494 214.48 18.4975 214.954 16.9155L218.509 18.2541C217.324 21.2965 214.717 22.8785 211.517 22.8785C206.778 23.0002 203.578 19.5928 203.578 14.4817ZM207.844 12.5346H214.48C214.48 10.9526 213.413 9.49224 211.399 9.49224C209.621 9.49224 208.318 10.4658 207.844 12.5346Z" fill="#103060"/>
<path d="M230.832 10.5873C230.358 10.4656 230.003 10.4656 229.41 10.4656C227.159 10.4656 225.5 11.9259 225.5 14.3597V22.6349H221.234V6.32799H225.5V8.64016C226.211 7.17984 227.751 6.2063 229.766 6.2063C230.24 6.2063 230.477 6.2063 230.832 6.32799V10.5873Z" fill="#103060"/>
<path d="M234.387 17.1588C235.454 18.7408 237.468 19.5926 239.246 19.5926C240.668 19.5926 241.971 19.1059 241.971 17.8889C241.971 16.672 240.786 16.4286 238.298 15.9418C235.691 15.4551 232.847 14.7249 232.847 11.1958C232.847 8.03178 235.572 5.84131 239.364 5.84131C242.208 5.84131 244.696 7.05824 246 8.64025L243.63 11.4392C242.564 9.97887 241.023 9.24872 239.364 9.24872C238.061 9.24872 237.113 9.85718 237.113 10.709C237.113 11.8043 238.179 11.926 240.194 12.4127C243.038 13.0212 246.237 13.6297 246.237 17.4022C246.237 20.8096 243.156 23 239.364 23C236.52 23 233.439 21.9048 232.017 19.836L234.387 17.1588Z" fill="#103060"/>
</g>
<defs>
<clipPath id="clip0">
<rect width="246" height="23" fill="white"/>
</clipPath>
</defs>
</svg>
