<?xml version="1.0" encoding="utf-8"?>
<svg width="220" height="21" viewBox="0 0 220 21" fill="none" xmlns="http://www.w3.org/2000/svg">
<g clip-path="url(#clip0)">
<path d="M9.11368 17.3333C11.2331 17.3333 12.8227 15.8889 13.3526 13.6667L17.0617 15C15.896 18.6667 13.1407 21 9.11368 21C3.81503 21 0 16.6667 0 10.5556C0 4.44444 3.81503 0 9.11368 0C13.1407 0 15.896 2.33333 17.0617 6L13.3526 7.33333C12.8227 5.11111 11.2331 3.66667 9.11368 3.66667C6.14644 3.66667 4.02697 6.33333 4.02697 10.5556C4.02697 14.7778 6.14644 17.3333 9.11368 17.3333Z" fill="white"/>
<path d="M19.0752 0.333252H22.8902V7.33325C23.632 6.33325 25.0097 5.55547 26.8112 5.55547C29.7785 5.55547 31.58 7.66658 31.58 10.8888V20.7777H27.765V11.9999C27.765 10.3333 27.1291 9.11103 25.5395 9.11103C24.1619 9.11103 22.8902 10.111 22.8902 12.111V20.7777H19.0752V0.333252Z" fill="white"/>
<path d="M33.8052 16.5557C33.8052 13.5557 36.1366 12.3334 38.9979 11.7779L42.6009 11.1112V10.889C42.6009 9.55566 41.9651 8.77789 40.3755 8.77789C38.9979 8.77789 38.256 9.44455 37.9381 10.7779L34.335 10.1112C34.9709 7.55566 37.1963 5.55566 40.5874 5.55566C44.1905 5.55566 46.416 7.33344 46.416 10.7779V16.889C46.416 17.6668 46.7339 17.889 47.5817 17.7779V20.7779C45.1443 21.1112 43.6607 20.6668 43.1308 19.3334C42.177 20.3334 40.7994 21.0001 38.8919 21.0001C35.8187 21.0001 33.8052 19.2223 33.8052 16.5557ZM42.495 13.889L39.7397 14.4446C38.468 14.6668 37.6202 15.1112 37.6202 16.3334C37.6202 17.3334 38.362 18.0001 39.5277 18.0001C41.1173 18.0001 42.6009 17.1112 42.6009 15.4446V13.889H42.495Z" fill="white"/>
<path d="M58.1793 9.66675C57.7554 9.55564 57.4375 9.55564 56.9076 9.55564C54.8941 9.55564 53.4105 10.889 53.4105 13.1112V20.6667H49.5955V5.77786H53.4105V7.88897C54.0463 6.55564 55.424 5.66675 57.2255 5.66675C57.6494 5.66675 57.8614 5.66675 58.1793 5.77786V9.66675Z" fill="white"/>
<path d="M61.2525 9.11097H59.345V5.77764H61.2525V1.55542H64.9615V5.77764H67.8228V9.11097H64.9615V15.9999C64.9615 17.3332 65.5974 17.4443 66.7631 17.4443C67.2929 17.4443 67.6109 17.4443 68.0348 17.3332V20.6665C67.3989 20.7776 66.5511 20.8888 65.5974 20.8888C62.7361 20.8888 61.2525 19.8888 61.2525 16.7776V9.11097Z" fill="white"/>
<path d="M80.8575 5.77783L83.1889 15.1112L85.6262 5.77783H89.3353L84.9904 20.7778H81.7052L79.2679 11.7778L76.8305 20.7778H73.5453L69.3064 5.77783H73.1214L75.5588 15.1112L77.8902 5.77783H80.8575Z" fill="white"/>
<path d="M89.8652 13.2224C89.8652 8.77791 92.7265 5.44458 96.8595 5.44458C101.098 5.44458 103.324 8.77791 103.324 12.889V14.0001H93.4683C93.7862 16.2224 95.0579 17.6668 96.9654 17.6668C98.449 17.6668 99.6148 16.889 100.039 15.4446L103.218 16.6668C102.158 19.4446 99.8267 20.889 96.9654 20.889C92.7265 21.0001 89.8652 17.889 89.8652 13.2224ZM93.5743 11.4446H99.5088C99.5088 10.0001 98.555 8.6668 96.7535 8.6668C95.1639 8.6668 93.9982 9.55569 93.5743 11.4446Z" fill="white"/>
<path d="M109.576 20.7777H105.761V0.333252H109.576V20.7777Z" fill="white"/>
<path d="M116.464 20.7777H112.649V0.333252H116.464V20.7777Z" fill="white"/>
<path d="M122.399 0.333252H118.478V3.88881H122.187C124.518 3.88881 125.684 4.88881 125.684 6.7777C125.684 8.55547 124.518 9.66658 122.187 9.66658H118.478V13.2221H122.399C126.85 13.2221 129.711 10.9999 129.711 6.7777C129.711 2.55547 126.85 0.333252 122.399 0.333252Z" fill="white"/>
<path d="M130.665 16.5557C130.665 13.5557 132.996 12.3334 135.857 11.7779L139.461 11.1112V10.889C139.461 9.55566 138.825 8.77789 137.235 8.77789C135.857 8.77789 135.116 9.44455 134.798 10.7779L131.195 10.1112C131.83 7.55566 134.056 5.55566 137.447 5.55566C141.05 5.55566 143.276 7.33344 143.276 10.7779V16.889C143.276 17.6668 143.594 17.889 144.441 17.7779V20.7779C142.004 21.1112 140.52 20.6668 139.99 19.3334C139.037 20.3334 137.659 21.0001 135.752 21.0001C132.678 21.0001 130.665 19.2223 130.665 16.5557ZM139.355 13.889L136.599 14.4446C135.328 14.6668 134.48 15.1112 134.48 16.3334C134.48 17.3334 135.222 18.0001 136.387 18.0001C137.977 18.0001 139.461 17.1112 139.461 15.4446V13.889H139.355Z" fill="white"/>
<path d="M155.038 9.66675C154.615 9.55564 154.297 9.55564 153.767 9.55564C151.753 9.55564 150.27 10.889 150.27 13.1112V20.6667H146.455V5.77786H150.27V7.88897C150.905 6.55564 152.283 5.66675 154.085 5.66675C154.509 5.66675 154.72 5.66675 155.038 5.77786V9.66675Z" fill="white"/>
<path d="M158.112 9.11097H156.204V5.77764H158.112V1.55542H161.821V5.77764H164.682V9.11097H161.821V15.9999C161.821 17.3332 162.457 17.4443 163.622 17.4443C164.152 17.4443 164.47 17.4443 164.894 17.3332V20.6665C164.258 20.7776 163.41 20.8888 162.457 20.8888C159.595 20.8888 158.112 19.8888 158.112 16.7776V9.11097Z" fill="white"/>
<path d="M167.331 5.77789H171.146V7.33344C171.888 6.33344 173.266 5.55566 175.067 5.55566C178.035 5.55566 179.836 7.66678 179.836 10.889V20.7779H176.021V12.0001C176.021 10.3334 175.385 9.11122 173.796 9.11122C172.418 9.11122 171.146 10.1112 171.146 12.1112V20.7779H167.331V5.77789Z" fill="white"/>
<path d="M182.062 13.2224C182.062 8.77791 184.923 5.44458 189.056 5.44458C193.295 5.44458 195.52 8.77791 195.52 12.889V14.0001H185.665C185.983 16.2224 187.254 17.6668 189.162 17.6668C190.646 17.6668 191.811 16.889 192.235 15.4446L195.414 16.6668C194.355 19.4446 192.023 20.889 189.162 20.889C184.923 21.0001 182.062 17.889 182.062 13.2224ZM185.877 11.4446H191.811C191.811 10.0001 190.858 8.6668 189.056 8.6668C187.466 8.6668 186.301 9.55569 185.877 11.4446Z" fill="white"/>
<path d="M206.435 9.66675C206.012 9.55564 205.694 9.55564 205.164 9.55564C203.15 9.55564 201.667 10.889 201.667 13.1112V20.6667H197.852V5.77786H201.667V7.88897C202.302 6.55564 203.68 5.66675 205.482 5.66675C205.906 5.66675 206.117 5.66675 206.435 5.77786V9.66675Z" fill="white"/>
<path d="M209.615 15.6668C210.568 17.1113 212.37 17.8891 213.959 17.8891C215.231 17.8891 216.397 17.4446 216.397 16.3335C216.397 15.2224 215.337 15.0002 213.112 14.5557C210.78 14.1113 208.237 13.4446 208.237 10.2224C208.237 7.3335 210.674 5.3335 214.065 5.3335C216.609 5.3335 218.834 6.44461 220 7.88905L217.88 10.4446C216.927 9.11127 215.549 8.44461 214.065 8.44461C212.9 8.44461 212.052 9.00016 212.052 9.77794C212.052 10.7779 213.006 10.8891 214.807 11.3335C217.351 11.8891 220.212 12.4446 220.212 15.8891C220.212 19.0002 217.457 21.0002 214.065 21.0002C211.522 21.0002 208.767 20.0002 207.495 18.1113L209.615 15.6668Z" fill="white"/>
</g>
<defs>
<clipPath id="clip0">
<rect width="220" height="21" fill="white"/>
</clipPath>
</defs>
</svg>
